<svg width="865" height="909" viewBox="0 0 865 909" fill="none" xmlns="http://www.w3.org/2000/svg">
<path d="M287.25 719.751C290.013 728.391 300.889 726.793 309.783 723.698C323.734 701.585 281.199 701.317 287.25 719.751Z" fill="#F9F9F9"/>
<path d="M228.2 636.389C229.143 639.099 228.483 641.395 230.85 644.703C231.864 644.472 232.633 644.934 233.015 646.381C238.92 647.972 248.644 641.671 251.781 637.055C255.205 621.036 231.176 625.023 228.092 636.427L228.2 636.389Z" fill="#F9F9F9"/>
<path d="M262.556 694.923C267.532 706.074 280.949 707.238 288.41 700.023C305.091 684.009 264.858 670.787 262.556 694.923Z" fill="#F9F9F9"/>
<path d="M314.183 738.088C314.839 741.02 315.093 743.848 317.428 747.411C322.922 750.968 333.967 748.46 337.872 741.511C340.598 727.679 319.881 726.504 314.183 738.088Z" fill="#F9F9F9"/>
<path d="M362.981 767.532C356.114 747.802 330.76 761.609 338.73 774.027C343.588 781.694 361.113 777.54 362.981 767.532Z" fill="#F9F9F9"/>
<path d="M826.329 328.689C833.347 348.853 848.174 369.094 861.879 378.422C859.196 359.181 843.487 329.767 826.329 328.689Z" fill="#F9F9F9"/>
<path d="M884.817 424.765C884.398 389.666 853.573 438.07 884.817 424.765V424.765Z" fill="#F9F9F9"/>
<path d="M877.988 463.845C884.727 468.185 907.417 467.337 906.082 454.068C898.763 452.605 882.78 463.636 877.988 463.845Z" fill="#F9F9F9"/>
<path d="M552.214 605.418C556.118 612.445 569.352 605.044 562.174 597.698C554.638 590.72 549.648 600.842 552.214 605.418Z" fill="#F9F9F9"/>
<path d="M365.664 786.773C367.069 791.51 367.107 791.618 370.064 795.572C375.676 797.022 382.236 795.954 389.947 791.204C397.672 773.567 370.135 770.268 365.735 786.627L365.664 786.773Z" fill="#F9F9F9"/>
<path d="M530.207 79.5375C531.249 73.098 526.675 64.8457 528.156 58.6181C580.674 61.366 623.629 91.1419 665.55 125.288C702.406 155.363 735.456 194.42 769.629 230.412C773.864 234.893 777.684 243.773 785.484 243.124C785.22 242.365 784.739 241.682 784.367 240.961C784.216 240.527 784.102 240.202 783.843 239.806C774.345 227.19 764.701 211.709 754.373 199.504C706.83 143.615 652.661 92.0977 594.747 65.4619C572.02 55.0195 545.502 40.6708 517.709 51.3154C512.361 59.0104 519.756 77.4625 530.169 79.4291L530.207 79.5375Z" fill="#F9F9F9"/>
<path d="M263.307 652.003C258.044 652.254 251.276 656.919 245.027 659.58C244.065 663.804 241.9 667.717 246.592 673.862C258.826 678.963 281.119 661.603 263.269 651.894L263.307 652.003Z" fill="#F9F9F9"/>
<path d="M126.603 784.046C126.773 766.364 104.182 772.038 97.9523 781.742C99.7772 796.42 121.476 794.824 126.603 784.046Z" fill="#F9F9F9"/>
<path d="M220.16 901.217C237.284 894.164 215.425 869.443 205.945 891.823C209.487 901.65 214.198 903.657 220.16 901.217Z" fill="#F9F9F9"/>
<path d="M307.147 1024.32C325.474 995.216 331.002 959.384 351.626 930.937C361.191 917.886 374.123 906.822 384.833 892.521C403.901 867.29 426.185 843.614 451.356 821.242C464.929 809.226 479.181 793.571 492.321 787.297C503.87 781.697 518.731 779.321 531.531 774.866C545.16 770.001 559.573 766.687 572.382 760.163C587.139 752.596 600.406 742.145 615.997 734.532C631.372 726.993 647.096 718.361 661.254 709.423C742.75 658.455 818.657 596.671 896.785 546.511C904.831 547.964 913.57 546.867 921.036 542.811C929.114 538.419 950.295 516.464 954.242 509.985C965.835 490.88 952.328 463.253 939.175 440.485C942.251 405.992 907.682 370.26 890.648 342.28C866.672 302.739 844.737 263.825 817.46 227.377C764.975 157.287 711.768 98.7509 649.257 56.4573C617.781 35.2045 585.113 14.367 552.525 8.08591C544.04 6.4203 535.523 7.80458 527.157 6.82715C519.045 5.88263 510.471 0.115986 501.826 0.0861472C485.372 -0.0209786 453 10.3944 441.686 20.1656C435.974 25.0701 433.201 32.4767 430.603 39.3363C428.81 43.9707 423.306 53.6644 423.363 58.02C423.391 65.7885 430.121 72.1969 430.376 80.6157C430.71 89.6144 419.622 111.217 414.217 122.943C394.112 166.157 369.012 205.155 345.897 243.219C312.469 298.119 281.469 349.865 248.662 402.361C250.799 413.042 242.625 421.356 239.183 430.332C235.527 439.747 234.136 450.076 228.585 458.935C231.603 484.38 219.76 512.201 230.296 543.172C212.129 565.051 207.054 593.798 187.462 617.874C142.314 673.693 64.431 711.979 5.43125 763.99C5.56788 771.721 -0.336805 781.311 0.318623 789.833C1.29468 803.47 10.2643 822.954 17.6638 838.974C25.1763 855.319 36.7071 870.63 46.6107 883.712C86.7773 936.578 134.405 971.047 179.788 1006.05C196.115 1018.72 216.79 1027.81 234.702 1036.65C242.451 1040.4 246.11 1045.32 251.713 1046.04C270.233 1048.59 295.22 1031.63 306.892 1024.29L307.147 1024.32ZM373.567 855.606C364.611 865.165 358.791 875.698 349.689 885.185C346.855 862.715 353.981 843.706 354.359 822.428C361.499 824.075 367.587 828.64 374.728 830.288C373.416 838.401 369.516 845.713 373.459 855.644L373.567 855.606ZM280.97 871.182C274.858 870.392 270.246 864.827 265.077 861.157C286.149 856.011 310.753 840.399 333.537 830.039C331.292 850.144 325.179 868.922 329.39 891.156C321.995 892.271 315.86 889.666 310.177 885.567C315.27 877.839 310.257 866.58 319.619 860.283C312.484 850.613 286.238 860.112 281.079 871.144L280.97 871.182ZM540.001 739.104C533.168 741.482 518.307 738.268 507.507 737.286C487.945 735.587 469.472 736.669 458.002 723.281C476.546 719.258 499.344 698.805 518.704 696.078C525.665 695.114 534.046 702.771 541.2 705.507C553.245 710.066 564.422 712.131 575.335 710.642C576.519 695.525 556.664 693.684 547.43 684.623C630.741 639.221 696.325 587.957 754.721 534.212C744.793 555.654 723.396 580.481 706.927 604.443C676.7 648.627 616.649 686.785 559.182 725.379C552.377 729.935 545.062 737.221 539.855 739.033L540.001 739.104ZM414.959 630.702C427.499 642.623 439.478 656.077 453.381 663.878C456.687 655.557 447.147 648.061 442.417 641.807C427 620.921 407.721 601.865 392.021 584.359C497.267 524.761 570.482 454.191 646.469 384.6C648.124 383.417 648.94 384.713 650.313 384.113C650.978 384.976 650.402 385.419 649.789 385.754C650.454 386.616 649.879 387.06 649.266 387.395C599.08 452.502 546.654 529.692 509.311 601.998C503.854 612.526 501.675 623.736 496.511 634.406C490.639 646.536 479.032 658.962 469.906 672.225C463.667 681.203 450.541 705.338 436.7 707.846C425.249 709.887 403.404 683.459 392.232 681.757C377.371 653.385 358.38 636.902 341.35 614.876C351.834 608.311 361.625 601.5 372.802 595.179C384.376 608.167 396.854 618.165 408.951 629.511C409.309 634.734 413.974 627.52 415.068 630.664L414.959 630.702ZM372.624 511.504C377.006 510.465 379.251 515.517 384.226 512.692C387.4 510.98 387.145 508.151 387.584 505.568C385.783 501.091 383.42 498.145 379.864 498.411C379.26 493.881 384.203 491.31 383.745 486.851C385.948 488.636 388.811 488.126 391.504 488.526C393.442 486.758 393.956 484.391 395.347 482.448C388.169 475.102 390.353 472.641 393.782 465.371C401.95 467.875 409.138 456.38 400.498 451.123C402.78 442.307 404.521 433.68 415.495 436.91C419.169 434.537 420.178 431.148 420.495 427.513C418.962 421.362 414.835 422.434 412.774 417.56C416.594 415.259 419.122 416.931 422.735 415.431C428.177 412.2 425.565 403.994 420.646 399.994C419.797 384.975 448.632 390.254 445.01 377.052C443.142 370.288 438.035 374.132 434.078 368.703C438.775 361.234 442.954 358.565 451.24 353.372C451.655 346.178 451.924 338.914 456.315 333.011C461.823 334.861 467.681 335.618 475.566 330.321C477.726 328.84 476.349 326.281 476.722 324.207C474.161 319.994 471.006 317.567 466.837 318.167C470.808 305.118 481.783 294.371 485.754 281.322C490.088 279.449 492.253 283.921 496.724 281.393C500.912 279.449 502.18 276.456 502.247 273.151C500.794 267.58 497.347 267.807 495.158 264.315C500.488 260.759 518.598 256.887 505.718 243.99C511.698 237.412 507.647 227.519 520.121 223.178C556.576 275.512 594.437 324.197 633.934 367.451C619.714 382.852 601.118 396.859 582.447 410.649C580.108 406.723 577.453 403.637 573.68 403.977C567.846 407.831 567.813 413.676 572.449 421.056C564.917 428.417 560.941 424.332 553.16 426.432C549.118 428.447 549.891 432.067 552.598 436.351C548.509 437.531 545.75 434.845 541.628 436.279C537.997 444.714 536.082 453.887 523.311 452.134C520.453 461.393 513.223 469.621 501.187 468.584C495.763 470.471 500.918 475.848 497.829 478.503C493.146 481.47 490.981 476.997 486.859 478.432C482.902 481.389 484.015 485.984 482.978 489.992C478.596 491.03 476.352 485.978 471.376 488.803C463.613 492.356 469.202 500.377 467.457 505.845C459.972 505.655 459.722 497.599 452.573 500.816C446.361 503.586 447.922 509.119 449.7 517.372C442.744 510.314 429.397 514.594 430.411 525.544C424.436 529.69 419.927 529.314 415.489 528.793C407.504 543.239 385.475 552.972 371.836 565.497C362.673 559.084 366.672 548.213 361.018 540.701C378.198 538.003 365.328 520.241 372.771 511.574L372.624 511.504ZM494.046 237.357C495.182 235.381 496.121 234.933 498.521 232.396C495.975 243.249 487.434 248.409 494.046 237.357ZM541.575 213.888C551.14 209.223 558.454 224.3 564.033 231.595C584.388 257.933 606.86 287.91 626.964 311.783C598.805 280.14 565.811 248.234 541.575 213.888ZM637.967 325.576C640.523 326.631 652.596 336.163 653.299 342.725C646.989 340.667 643.404 330.368 637.967 325.576ZM741.554 527.127C731.15 537.068 711.686 526.219 715.063 545.705C703.876 548.504 700.952 558.272 690.251 562.118C679.333 566.039 664.69 557.159 668.759 576.89C659.709 581.984 636.265 580.663 638.948 597.109C614.113 614.503 573.091 641.297 541.611 658.816C523.906 668.745 513.517 671.389 503 658.642C521.049 630.484 538.221 601.902 557.364 574.093C559.963 572.824 561.58 574.327 564.528 571.964C566.613 559.085 574.588 541.118 590.571 541.267C594.561 538.056 585.563 530.371 589.005 526.985C594.236 524.192 596.877 528.986 602.772 524.26C606.767 521.411 602.758 514.785 599.527 512.142C623.179 476.322 642.563 439.071 660.16 401.226C660.179 397.087 657.637 397.121 658.033 394.066C697.841 430.528 737.678 466.372 779.83 495.94C776.095 504.776 762.291 510.187 754.981 517.836C752.222 515.15 749.496 512.21 745.058 514.483C739.172 517.139 741.931 522.621 741.662 527.089L741.554 527.127ZM510.05 672.96C504.353 678.953 491.506 682.574 482.965 687.734C487.248 679.073 493.317 671.005 501.321 663.601C504.372 666.429 506.688 671.335 510.088 673.068L510.05 672.96ZM675.719 374.299C679.166 374.072 683.175 372.312 687.321 369.897C727.511 405.01 767.772 439.977 808.486 473.45C810.905 477.955 801.322 478.373 798.488 481.061C756.269 449.206 715.31 413.632 675.681 374.191L675.719 374.299ZM717.816 645.864C690.32 665.399 670.371 681.457 640.961 696.189C671.177 673.641 692.018 647.915 711.327 621.628C714.713 616.682 720.834 623.788 724.607 617.857C728.682 615.588 721.301 609.406 723.004 606.261C735.634 591.535 746.623 576.286 756.881 560.684C769.058 564.225 785.347 554.423 771.878 540.881C777.986 530.126 788.616 520.836 790.163 508.509C816.46 514.184 836.81 537.364 863.805 540.852C824.1 571.078 763.666 613.378 717.816 645.864ZM828.779 492.274C839.551 499.463 849.271 509.571 860.636 514.974C849.667 514.902 832.42 509.723 822.21 498.206C825.275 496.532 825.822 493.911 828.888 492.236L828.779 492.274ZM496.298 33.123C501.486 21.4731 513.338 16.7408 525.548 20.0266C551.209 27.0173 577.902 43.6145 602.958 60.0521C663.254 99.471 724.473 151.329 778.401 215.084C795.921 235.724 806.66 248.759 816.709 273.093C839.959 329.415 889.35 373.844 912.836 431.543C918.651 445.805 935.506 476.764 935.699 488.85C935.788 495.747 928.945 500.194 930.624 509.211C860.726 491.122 803.214 436.636 752.347 362.458C748.682 357.171 756.219 355.763 751.899 350.339C748.371 344.396 741.976 346.986 737.015 345.31C737.996 342.538 740.109 340.223 738.208 336.509C730.384 329.752 722.089 331.424 723.249 342.444C726.427 346.686 730.445 348.447 735.859 345.834C735.793 349.138 733.831 351.887 736.939 356.275C744.032 359.883 752.55 364.089 753.912 376.741C743.886 373.789 737.986 358.584 727.502 356.764C738.293 373.791 750.62 386.151 761.934 401.538C744.603 387.03 727.03 370.783 709.821 354.531C688.788 334.627 667.353 311.825 643.98 301.972C592.085 232.527 537.289 171.87 489.77 89.8427C557.474 173.961 625.494 257.239 697.253 329.25C702.337 323.592 693.834 317.679 691.212 314.338C665.623 282.043 640.086 248.15 612.355 215.993C575.513 173.03 538.544 128.653 507.348 70.1134C513.045 58.5293 497.312 46.8682 495.973 33.2362L496.298 33.123ZM450.934 58.2692C467.392 97.8738 491.982 139.875 516.996 169.818C519.245 172.438 511.426 171.635 513.675 174.255C488.94 140.569 449.24 101.274 450.971 58.3776L450.934 58.2692ZM323.995 318.658C323.693 317.791 324.41 317.055 324.07 316.079C323.712 316.447 323.712 316.447 324.032 315.971C324.032 315.971 324.032 315.971 324.07 316.079C326.324 313.472 342.61 292.126 347.911 283.597C373.737 241.794 399.36 195.565 426.229 155.709C394.036 210.666 368.483 267.93 324.032 318.766C324.561 320.284 322.353 320.931 321.868 319.884C318.741 322.431 320.698 324.91 319.665 326.485C309.667 342.482 313.213 321.924 324.178 318.837L323.995 318.658ZM467.005 146.38C476.677 161.244 487.119 173.774 497.107 187.799C428.784 240.624 377.863 299.425 320.556 355.951C367.657 285.475 420.451 217.029 467.113 146.342L467.005 146.38ZM290.372 425.765C304.218 406.848 320.438 388.806 335.779 370.341C338.666 366.055 341.151 370.052 346.263 366.571C351.465 361.601 346.891 353.348 355.668 349.565C360.69 347.574 363.619 354.94 369.958 350.79C376.079 346.715 372.368 340.593 370.033 334.235C408.258 299.055 448.817 264.643 484.052 228.56C486.703 228.488 478.647 240.285 475.695 245.08C442.431 298.708 415.699 360.272 391.033 418.685C385.218 432.377 377.125 444.065 371.592 457.172C360.49 483.277 355.877 511.255 342.488 534.631C332.349 503.401 298.355 464.43 290.192 425.949L290.372 425.765ZM252.608 504.901C246.85 486.608 273.473 453.036 282.684 437.92C284.778 445.334 284.83 452.122 281.453 457.794C290.172 494.38 312.262 534.091 337.107 556.558C333.942 570.177 330.367 588.558 324.792 598.398C305.055 572.087 263.898 540.835 252.537 505.047L252.608 504.901ZM260.441 568.29C323.876 639.795 382.308 725.925 458.86 758.592C459.072 760.949 456.95 759.743 455.54 760.234C409.232 743.535 368.287 697.868 328.257 655.529C304.394 630.29 276.267 609.573 260.403 568.182L260.441 568.29ZM244.434 580.302C284.605 664.279 344.24 714.38 400.998 758.312C414.924 765.132 427.134 776.804 443.339 777.241C445.654 782.147 447.692 788.001 452.068 786.6C448.191 795.727 432.166 800.697 424.422 808.496C424.568 802.976 420.437 798.094 416.216 797.497C410.906 799.71 406.652 802.163 405.208 805.703C403.6 813.312 413.603 814.449 413.414 816.702C395.502 821.842 374.832 813.115 358.424 805.456C300.105 778.354 247.148 716.692 206.676 634.643C219.079 616.472 243.887 602.491 244.434 580.302ZM228.296 828.503C223.207 828.208 219.689 822.991 215.723 819.631C236.22 812.133 255.792 800.582 275.416 790.228C267.917 811.311 258.739 831.763 257.989 855.116C253.607 853.359 249.967 849.887 246.463 845.758C254.254 838.793 255.126 824.878 249.934 816.597C243.261 814.544 233.253 824.226 228.442 828.574L228.296 828.503ZM167.454 769.343C165.195 765.997 162.342 764.437 160.366 760.507C182.254 751.066 201.203 750.305 222.148 743.745C213.842 764.258 205.645 784.733 202.556 806.956C196.977 808.047 194.93 798.672 190.506 796.444C189.643 785.927 204.259 773.062 196.666 764.524C190.879 758.03 178.891 766.213 167.454 769.343ZM245.875 736.095C249.077 739.356 252.661 741.269 255.128 746.608C250.326 754.478 241.55 761.057 242.365 770.739C250.137 776.298 265.064 770.617 274.374 763.124C275.77 767.135 282.905 768.419 281.462 771.959C261.131 780.98 239.526 792.631 219.081 804.121C228.231 781.492 239.022 759.384 245.837 735.987L245.875 736.095ZM289.112 779.263C296.021 779.897 300.477 787.461 306.123 791.452C297.897 798.568 283.282 811.433 288.885 820.543C295.487 831.128 322.327 814.252 329.736 805.839C333.542 808.039 336.508 812.719 341.3 812.51C323.279 820.483 295.657 833.013 273.326 844.674C270.355 842.426 273.646 835.812 275.043 831.437C279.731 817.652 287.828 800.735 291.238 786.423C288.73 783.407 291.474 782.208 289.112 779.263ZM208.052 684.723C210.811 690.204 214.126 693.79 217.305 698.032C207.085 702.561 198.615 707.575 198.464 715.527C206.622 731.282 227.652 708.893 235.881 724.503C213.786 729.154 191.234 734.937 168.091 742.869C180.585 723.208 193.625 703.721 208.052 684.723ZM148.392 736.234C141.445 727.106 141.436 712.404 139.776 702.043C152.765 695.335 163.866 694.389 175.666 691.254C168.568 706.85 155.198 720.497 148.392 736.234ZM177.237 677.946C167.05 679.426 155.906 682.696 146.346 684.93C160.014 671.787 177.949 660.076 192.31 647.178C194.611 656.586 197.969 666.234 202.605 676.41C199.186 678.815 187.315 676.505 177.237 677.946ZM60.1247 743.983C78.7206 732.772 91.2988 719.644 111.536 708.955C139.497 767.283 181.097 821.473 222.028 854.87C231.206 862.371 242.015 866.873 252.244 874.252C265.628 884.056 274.004 894.146 287.275 900.83C301.131 907.797 314.633 912.699 331.819 910.364C330.649 920.98 320.288 928.597 318.425 938.968C312.171 932.88 292.623 935.065 293.542 947.141C297.339 954.206 303.719 953.322 309.435 954.371C309.313 958.911 306.162 962.438 306.04 966.977C297.385 971.812 291.212 969.099 282.836 972.987C248.14 960.998 213.892 930.38 180.771 897.06C148.461 864.673 114.18 831.514 85.9446 799.654C73.1547 785.267 53.3567 765.42 59.87 743.95L60.1247 743.983ZM55.4169 815.018C45.65 798.486 32.7565 773.318 45.2356 760.954C64.8916 817.433 105.794 854.243 137.67 892.371C142.594 893.939 136.59 895.907 139.797 899.531C190.221 939.59 236.943 991.025 297.409 1001.58C297.673 1002.34 298.154 1003.02 298.526 1003.74C289.429 1008 277.421 1006.35 268.197 1003.6C253.176 999.23 235.962 988.206 224.252 975.874C221.644 973.622 217.395 976.438 214.961 973.638C200.639 958.691 184.816 948.52 170.569 933.789C153.407 923.963 135.599 906.339 117.933 888.424C94.5978 864.702 74.1301 846.425 55.4876 814.872L55.4169 815.018ZM273.535 1023.14C263.886 1026.86 252.671 1024.69 243.838 1021.32C226.794 1014.97 208.175 999.214 190.602 985.762C173.691 972.81 155.722 959.617 139.57 946.401C113.763 925.363 93.107 895.362 70.0361 866.809C62.8017 857.903 51.7 850.463 53.1009 838.065C84.972 875.831 120.083 914.17 157.18 945.984C195.413 978.619 230.458 1011.88 275.808 1021.98C276.336 1023.5 274.129 1024.14 273.644 1023.1L273.535 1023.14Z" fill="#F9F9F9"/>
<path d="M261.864 938.234C265.349 946.501 273.051 943.821 282.756 938.863C292.628 915.86 255.12 922.351 261.864 938.234Z" fill="#F9F9F9"/>
<path d="M204.418 863.672C201.626 847.264 182.828 854.05 179.682 863.531C179.804 881.354 203.899 876.857 204.418 863.672Z" fill="#F9F9F9"/>
<path d="M257.016 914.521C257.875 902.311 243.623 898.399 231.686 910.575C227.866 926.853 256.002 928.729 257.016 914.521Z" fill="#F9F9F9"/>
<path d="M167.562 844.778C182.281 837.104 166.232 812.305 150.551 829.795C149.329 842.009 159.95 848.764 167.562 844.778Z" fill="#F9F9F9"/>
<path d="M114.667 748.701C107.334 726.581 79.1025 742.605 89.7843 756.874C95.2172 764.099 112.337 759.478 114.667 748.701Z" fill="#F9F9F9"/>
<path d="M123.093 818.689C128.309 825.989 143.34 822.703 147.976 813.311C145.901 787.782 111.808 802.685 123.093 818.689Z" fill="#F9F9F9"/>
</svg>
