<svg width="18" height="19" viewBox="0 0 18 19" fill="none" xmlns="http://www.w3.org/2000/svg">
<path d="M9 10.5C8.71667 10.5 8.47933 10.404 8.288 10.212C8.096 10.0207 8 9.78333 8 9.5C8 9.21667 8.096 8.979 8.288 8.787C8.47933 8.59567 8.71667 8.5 9 8.5C9.28333 8.5 9.521 8.59567 9.713 8.787C9.90433 8.979 10 9.21667 10 9.5C10 9.78333 9.90433 10.0207 9.713 10.212C9.521 10.404 9.28333 10.5 9 10.5ZM5 10.5C4.71667 10.5 4.479 10.404 4.287 10.212C4.09567 10.0207 4 9.78333 4 9.5C4 9.21667 4.09567 8.979 4.287 8.787C4.479 8.59567 4.71667 8.5 5 8.5C5.28333 8.5 5.521 8.59567 5.713 8.787C5.90433 8.979 6 9.21667 6 9.5C6 9.78333 5.90433 10.0207 5.713 10.212C5.521 10.404 5.28333 10.5 5 10.5ZM13 10.5C12.7167 10.5 12.4793 10.404 12.288 10.212C12.096 10.0207 12 9.78333 12 9.5C12 9.21667 12.096 8.979 12.288 8.787C12.4793 8.59567 12.7167 8.5 13 8.5C13.2833 8.5 13.5207 8.59567 13.712 8.787C13.904 8.979 14 9.21667 14 9.5C14 9.78333 13.904 10.0207 13.712 10.212C13.5207 10.404 13.2833 10.5 13 10.5ZM9 14.5C8.71667 14.5 8.47933 14.404 8.288 14.212C8.096 14.0207 8 13.7833 8 13.5C8 13.2167 8.096 12.9793 8.288 12.788C8.47933 12.596 8.71667 12.5 9 12.5C9.28333 12.5 9.521 12.596 9.713 12.788C9.90433 12.9793 10 13.2167 10 13.5C10 13.7833 9.90433 14.0207 9.713 14.212C9.521 14.404 9.28333 14.5 9 14.5ZM5 14.5C4.71667 14.5 4.479 14.404 4.287 14.212C4.09567 14.0207 4 13.7833 4 13.5C4 13.2167 4.09567 12.9793 4.287 12.788C4.479 12.596 4.71667 12.5 5 12.5C5.28333 12.5 5.521 12.596 5.713 12.788C5.90433 12.9793 6 13.2167 6 13.5C6 13.7833 5.90433 14.0207 5.713 14.212C5.521 14.404 5.28333 14.5 5 14.5ZM13 14.5C12.7167 14.5 12.4793 14.404 12.288 14.212C12.096 14.0207 12 13.7833 12 13.5C12 13.2167 12.096 12.9793 12.288 12.788C12.4793 12.596 12.7167 12.5 13 12.5C13.2833 12.5 13.5207 12.596 13.712 12.788C13.904 12.9793 14 13.2167 14 13.5C14 13.7833 13.904 14.0207 13.712 14.212C13.5207 14.404 13.2833 14.5 13 14.5ZM2 18.5C1.45 18.5 0.979 18.3043 0.587 17.913C0.195667 17.521 0 17.05 0 16.5V2.5C0 1.95 0.195667 1.47933 0.587 1.088C0.979 0.696 1.45 0.5 2 0.5H3V2.00004H5V0.5H13V2.00004H15V0.5H16C16.55 0.5 17.021 0.696 17.413 1.088C17.8043 1.47933 18 1.95 18 2.5V16.5C18 17.05 17.8043 17.521 17.413 17.913C17.021 18.3043 16.55 18.5 16 18.5H2ZM2 16.5H16V6.5H2V16.5Z" fill="#24292C"/>
</svg>
