<svg width="143" height="41" viewBox="0 0 143 41" fill="none" xmlns="http://www.w3.org/2000/svg">
<path d="M47.3353 16.5587C47.9005 15.1683 47.2526 13.5742 45.8881 12.9982C44.5236 12.4223 42.9593 13.0826 42.3941 14.473C41.8289 15.8634 42.4769 17.4575 43.8414 18.0335C45.2058 18.6094 46.7701 17.9491 47.3353 16.5587Z" fill="white"/>
<path d="M34.1806 0.878657C34.1649 0.942774 34.1492 1.02292 34.1335 1.10307C34.2278 1.10307 34.275 1.10307 34.3379 1.1191C35.5649 1.21527 36.4929 2.20909 36.4929 3.45938C36.4929 11.8106 36.4929 20.1619 36.4929 28.4971C36.4929 28.5613 36.4772 28.6254 36.4772 28.7216C36.3986 28.6254 36.3671 28.5613 36.3199 28.4971C30.1853 19.3444 24.0506 10.2077 17.9159 1.05498C17.8845 1.00689 17.853 0.942774 17.8216 0.878657C16.0913 0.878657 14.3767 0.878657 12.6464 0.878657C12.6307 0.942774 12.615 1.02292 12.5992 1.10307C13.4487 1.13513 14.1565 1.48777 14.8014 1.98468C14.9115 2.06482 14.9744 2.161 14.9744 2.30526C14.9744 10.7687 14.9744 19.2162 14.9744 27.6797C14.9744 28.946 14.0621 29.9238 12.8352 30.0199C12.6779 30.036 12.5992 30.0841 12.615 30.2443C14.361 30.2443 16.0913 30.2443 17.8373 30.2443C17.8687 30.036 17.7429 30.036 17.6013 30.0199C16.4059 29.9238 15.4778 28.9299 15.4778 27.7277C15.4778 19.4246 15.4778 11.1054 15.4778 2.80217C15.4778 2.73806 15.4935 2.67394 15.4935 2.60982C15.7609 2.86629 15.9812 3.12276 16.1699 3.41129C21.1878 10.897 26.2056 18.3666 31.2077 25.8523C32.1829 27.311 33.1739 28.7857 34.1492 30.2443C35.1087 30.2443 36.0525 30.2443 37.012 30.2443C37.012 30.1321 36.9963 30.036 36.9963 29.9238C36.9963 23.6242 36.9963 17.3247 36.9963 11.0092C36.9963 8.49258 36.9963 5.97598 36.9963 3.45938C36.9963 2.33732 37.6884 1.43968 38.758 1.18321C38.9468 1.13513 39.1513 1.1191 39.3715 1.08704C39.3558 1.00689 39.34 0.942774 39.3243 0.878657C37.6098 0.878657 35.8952 0.878657 34.1806 0.878657Z" fill="white"/>
<path d="M112.169 30.2283C112.169 30.1321 112.154 30.036 112.154 29.9238C112.154 23.6723 112.154 17.4209 112.154 11.1695C112.154 8.58875 112.154 6.00803 112.154 3.44335C112.154 2.32129 112.846 1.42365 113.915 1.16718C114.104 1.1191 114.309 1.10307 114.529 1.07101C114.513 0.990862 114.497 0.926745 114.482 0.862628C112.767 0.862628 111.053 0.862628 109.354 0.862628C109.338 0.926745 109.322 1.00689 109.307 1.08704C109.401 1.08704 109.448 1.08704 109.511 1.10307C110.738 1.19924 111.666 2.19306 111.666 3.44335C111.666 11.7946 111.666 20.1459 111.666 28.4811C111.666 28.5452 111.65 28.6094 111.65 28.7055C111.572 28.6094 111.54 28.5452 111.493 28.4811C105.358 19.3284 99.2237 10.1917 93.0891 1.03895C93.0576 0.990862 93.0262 0.926745 92.9947 0.862628C91.2644 0.862628 89.5498 0.862628 87.8196 0.862628C87.8038 0.926745 87.7881 1.00689 87.7724 1.08704C88.6218 1.1191 89.3296 1.47174 89.9745 1.96865C90.0847 2.0488 90.1476 2.14497 90.1476 2.28924C90.1476 10.7527 90.1476 19.2002 90.1476 27.6636C90.1476 28.9299 89.2352 29.9077 88.0083 30.0039C87.851 30.0199 87.7724 30.068 87.7881 30.2283C89.5341 30.2283 91.2644 30.2283 93.0104 30.2283C93.0419 30.0199 92.916 30.0199 92.7745 30.0039C91.579 29.9077 90.6509 28.9139 90.6509 27.7117C90.6509 19.4085 90.6509 11.0893 90.6509 2.78614C90.6509 2.72203 90.6667 2.65791 90.6667 2.59379C90.9341 2.85026 91.1543 3.10673 91.3431 3.39526C96.3609 10.8809 101.379 18.3506 106.381 25.8363C107.356 27.295 108.347 28.7696 109.322 30.2283C110.266 30.2283 111.21 30.2283 112.169 30.2283Z" fill="white"/>
<path d="M119.484 30.0039C119.327 30.0199 119.248 30.068 119.264 30.2283C126.735 30.2283 134.191 30.2283 141.663 30.2283C142.072 27.7277 142.481 25.2111 142.89 22.6945C142.811 22.6945 142.733 22.6945 142.67 22.6945C142.654 22.7587 142.638 22.8067 142.622 22.8548C142.166 25.0989 141.097 26.9583 139.382 28.433C138.312 29.3627 137.07 29.8276 135.638 29.8116C132.021 29.7795 128.403 29.7955 124.785 29.7955C124.69 29.7955 124.612 29.7955 124.502 29.7955C124.502 25.115 124.502 20.4344 124.502 15.7539C124.596 15.7539 124.675 15.7539 124.753 15.7539C128.403 15.7539 132.068 15.7539 135.717 15.7539C135.843 15.7539 135.969 15.7538 136.11 15.7699C137.369 15.834 138.281 16.6355 138.454 17.8377C138.517 17.8377 138.596 17.8377 138.659 17.8377C138.659 16.2988 138.659 14.7921 138.659 13.2693C138.58 13.2693 138.517 13.2693 138.454 13.2693C138.391 14.1509 137.904 14.6959 137.18 15.0486C136.74 15.2569 136.283 15.3531 135.796 15.3531C132.115 15.3531 128.434 15.3531 124.753 15.3531C124.675 15.3531 124.596 15.3531 124.502 15.3531C124.502 10.6565 124.502 5.992 124.502 1.31145C124.612 1.31145 124.706 1.31145 124.801 1.31145C128.544 1.31145 132.272 1.32748 136.016 1.31145C137.086 1.31145 138.029 1.61601 138.879 2.25718C140.703 3.61967 141.789 5.47907 142.276 7.72317C142.308 7.88346 142.355 7.96361 142.528 7.88346C142.528 7.80332 142.512 7.72317 142.512 7.65905C142.276 6.1523 142.04 4.66157 141.805 3.15482C141.694 2.40144 141.584 1.64806 141.458 0.894686C134.065 0.894686 126.688 0.894686 119.295 0.894686C119.279 0.958803 119.264 1.03895 119.264 1.1191C119.342 1.1191 119.389 1.1191 119.452 1.13513C120.711 1.21527 121.639 2.22512 121.639 3.49143C121.639 11.5542 121.639 19.6169 121.639 27.6797C121.623 28.9299 120.726 29.9077 119.484 30.0039Z" fill="white"/>
<path d="M7.36119 30.0039C6.11852 29.9077 5.20619 28.9139 5.20619 27.6636C5.20619 19.6009 5.20619 11.5221 5.20619 3.45938C5.20619 2.4335 5.81966 1.55189 6.77918 1.2313C7.03086 1.15115 7.29826 1.1191 7.54994 1.05498C7.54994 1.00689 7.54994 0.926745 7.54994 0.862628C5.03316 0.862628 2.51638 0.862628 0.0153266 0.862628C0.0153266 0.926745 0.0153266 1.00689 0.0153266 1.05498C0.282735 1.1191 0.550143 1.15115 0.786091 1.2313C1.72988 1.53586 2.34335 2.40144 2.35908 3.41129C2.35908 3.44335 2.35908 3.4754 2.35908 3.50746C2.35908 11.5381 2.35908 19.5849 2.35908 27.6155C2.35908 28.7376 1.69842 29.6352 0.660252 29.9238C0.502953 29.9718 0.345654 29.9879 0.188355 30.0039C0.0310562 30.0039 -0.0318631 30.068 0.0153266 30.2283C2.53211 30.2283 5.04889 30.2283 7.54994 30.2283C7.61286 30.052 7.51848 30.0199 7.36119 30.0039Z" fill="white"/>
<path d="M76.5884 28.5613C74.9368 28.0323 73.238 27.7919 71.5234 27.5995C71.256 27.5674 71.0043 27.5514 70.7369 27.5194C71.4133 27.295 72.1054 27.0705 72.7503 26.782C77.1862 24.6982 79.9231 21.2359 80.8198 16.3149C80.8984 15.8981 80.9456 15.4653 80.9928 15.0325C80.9928 14.5196 80.9928 14.0227 80.9928 13.5097C80.9299 12.9968 80.8984 12.4839 80.804 11.9709C79.8288 6.34465 76.6671 2.62585 71.3661 0.79851C69.1482 0.0291038 66.8516 -0.131189 64.5079 0.0932207C61.8495 0.34969 59.3957 1.18321 57.2092 2.77012C54.252 4.91804 52.4902 7.83537 51.7824 11.458C51.4835 12.9648 51.4049 14.4715 51.5307 15.9943C51.8768 20.1779 53.8115 23.4319 57.2407 25.7401C58.4204 26.5255 59.6788 27.1026 61.0158 27.5033C59.7889 27.6155 58.562 27.7758 57.3665 28.0323C56.2497 28.2727 55.1486 28.5773 54.1261 29.0902C53.9688 29.1704 53.843 29.2666 53.6857 29.3627C54.0632 29.3627 54.4407 29.3627 54.8183 29.3627C54.9126 29.3146 55.0227 29.2666 55.1171 29.2185C56.9418 28.6414 58.8294 28.401 60.7327 28.2247C61.2361 28.1766 61.7394 28.1445 62.2428 28.1124C62.2428 28.0163 62.2428 27.9041 62.2428 27.8079C62.2428 27.6796 62.2428 27.5514 62.2585 27.4072C62.2742 27.2469 62.2113 27.1667 62.0697 27.1026C61.5664 26.8782 61.0473 26.6698 60.5754 26.3973C57.8227 24.7944 56.0924 22.3579 55.1171 19.3124C54.5194 17.4049 54.425 15.4333 54.5351 13.4617C54.6924 10.5443 55.4475 7.81935 57.0991 5.41495C59.6473 1.69615 63.1551 0.0130745 67.5909 0.477924C70.7369 0.81454 73.2537 2.36938 75.0941 4.96613C77.6581 8.60478 78.5232 12.6762 77.6738 17.0843C77.1861 19.6329 76.1008 21.9091 74.402 23.8647C73.2694 25.1791 71.9324 26.1889 70.3594 26.8942C70.2965 26.9263 70.2021 26.9904 70.2021 27.0545C70.1864 27.2469 70.2021 27.4552 70.2021 27.6636H70.2178C70.2178 27.8399 70.2178 28.0002 70.2178 28.1605C70.7684 28.2086 71.3032 28.2567 71.8223 28.3048C73.5525 28.4811 75.2671 28.7216 76.9502 29.2024C77.076 29.2345 77.1862 29.2986 77.2963 29.3467C77.721 29.3467 78.1457 29.3467 78.5704 29.3467C77.894 29.0902 77.2648 28.7696 76.5884 28.5613Z" fill="white"/>
<path d="M6.65334 40.4069C6.49604 38.804 6.35447 37.2011 6.18144 35.6142C6.14998 35.2936 6.19717 35.0531 6.54323 34.957C6.26009 34.9409 5.99268 34.957 5.74101 34.9409C5.56798 34.9249 5.48933 35.005 5.44214 35.1653C4.87586 36.7683 4.29386 38.3872 3.71185 39.9902C3.69612 40.0543 3.66466 40.1184 3.61747 40.2306C3.52309 39.9902 3.46017 39.7978 3.39725 39.6055C2.87817 38.1308 2.35908 36.6561 1.83999 35.1814C1.80853 35.1012 1.74561 34.973 1.68269 34.973C1.3681 34.957 1.0535 34.957 0.754632 34.957C1.08496 35.1012 1.14788 35.2295 1.11642 35.5981C0.97485 37.1049 0.817551 38.6116 0.691712 40.1184C0.660252 40.5512 0.550143 40.8878 0.0939759 40.984C0.455763 40.984 0.817551 40.984 1.17934 40.984C0.738901 40.7596 0.723172 40.7435 0.770362 40.2306C0.911931 38.6277 1.06923 37.0087 1.22653 35.4058C1.22653 35.3737 1.24226 35.3417 1.25799 35.2615C1.30518 35.3417 1.32091 35.3897 1.33664 35.4218C1.99729 37.2331 2.65795 39.0605 3.3186 40.8718C3.33433 40.9038 3.33433 40.9519 3.35006 40.984C3.39725 40.984 3.44444 40.984 3.49163 40.984C3.7905 40.1505 4.07364 39.333 4.37251 38.4994C4.73429 37.5056 5.09608 36.5118 5.45787 35.5019C5.48933 35.4218 5.52079 35.3417 5.59944 35.2615C5.66236 35.8706 5.72528 36.4797 5.77247 37.0728C5.86684 38.0987 5.97695 39.1246 6.07133 40.1504V40.1665C6.13425 40.6634 6.10279 40.7275 5.67809 40.9519C6.19717 40.9519 6.70053 40.9519 7.21961 40.9519C7.17242 40.9359 7.12524 40.9038 7.07805 40.8878C6.82637 40.8237 6.6848 40.6634 6.65334 40.4069Z" fill="white"/>
<path d="M28.8797 40.1505C28.8954 38.6597 28.8954 37.185 28.8797 35.6943C28.8797 35.3577 28.9111 35.0531 29.3044 34.957C28.8325 34.957 28.3606 34.957 27.8572 34.957C28.2347 35.1173 28.2977 35.2134 28.2977 35.5981C28.2977 36.2714 28.2977 36.9446 28.2977 37.6178C28.2977 37.698 28.2819 37.7781 28.2819 37.8583C26.9764 37.8583 25.7022 37.8583 24.4281 37.8583C24.4281 37.1369 24.4438 36.4477 24.4281 35.7424C24.4281 35.3897 24.4438 35.0852 24.9157 34.957C24.3809 34.957 23.909 34.957 23.3742 34.957C23.6888 35.0531 23.8461 35.1974 23.8461 35.4859C23.8461 37.1369 23.8461 38.7719 23.8461 40.423C23.8461 40.6794 23.7203 40.8397 23.4843 40.9199C23.4371 40.9359 23.3899 40.9519 23.3427 40.984C23.8776 40.984 24.3967 40.984 24.9315 40.984C24.5068 40.8718 24.4124 40.5832 24.4281 40.1665C24.4596 39.6696 24.4281 39.1566 24.4281 38.6437C24.4281 38.4193 24.4281 38.2109 24.4281 37.9705C25.7337 37.9705 27.0078 37.9705 28.2977 37.9705C28.2977 38.0666 28.2977 38.1468 28.2977 38.243C28.2977 38.8841 28.2819 39.5253 28.2977 40.1665C28.3134 40.5672 28.219 40.8557 27.8258 40.9679C28.3449 40.9679 28.8482 40.9679 29.3673 40.9679C28.9583 40.8397 28.8797 40.5512 28.8797 40.1505Z" fill="white"/>
<path d="M114.057 40.1505C114.073 38.6597 114.073 37.185 114.057 35.6943C114.057 35.3577 114.088 35.0531 114.482 34.957C114.01 34.957 113.538 34.957 113.035 34.957C113.412 35.1173 113.475 35.2134 113.475 35.5981C113.475 36.2714 113.475 36.9446 113.475 37.6178C113.475 37.698 113.459 37.7781 113.459 37.8583C112.154 37.8583 110.88 37.8583 109.605 37.8583C109.605 37.1369 109.621 36.4477 109.605 35.7424C109.605 35.3897 109.621 35.0852 110.093 34.957C109.558 34.957 109.086 34.957 108.552 34.957C108.866 35.0531 109.023 35.1974 109.023 35.4859C109.023 37.1369 109.023 38.7719 109.023 40.423C109.023 40.6794 108.898 40.8397 108.662 40.9199C108.614 40.9359 108.567 40.9519 108.52 40.984C109.055 40.984 109.574 40.984 110.109 40.984C109.684 40.8718 109.59 40.5832 109.605 40.1665C109.637 39.6696 109.605 39.1566 109.605 38.6437C109.605 38.4193 109.605 38.2109 109.605 37.9705C110.911 37.9705 112.185 37.9705 113.475 37.9705C113.475 38.0666 113.475 38.1468 113.475 38.243C113.475 38.8841 113.459 39.5253 113.475 40.1665C113.491 40.5672 113.396 40.8557 113.003 40.9679C113.522 40.9679 114.026 40.9679 114.545 40.9679C114.136 40.8397 114.057 40.5512 114.057 40.1505Z" fill="white"/>
<path d="M36.5559 35.6142C35.6907 34.9089 34.6683 34.7806 33.6144 35.0371C32.1987 35.3577 31.3335 36.5278 31.3178 38.0666C31.3021 39.4452 32.1358 40.4871 33.5043 40.8557C33.6773 40.9038 33.8346 40.9359 34.0076 40.9679C34.275 40.9679 34.5582 40.9679 34.8256 40.9679C35.0301 40.9199 35.2345 40.8878 35.439 40.8237C36.5716 40.471 37.3581 39.7337 37.594 38.5315C37.8142 37.3614 37.4682 36.3675 36.5559 35.6142ZM36.2098 40.0543C35.5649 40.7596 34.7626 41.016 33.8503 40.7916C32.8908 40.5512 32.3245 39.878 32.0571 38.9322C31.9785 38.6437 31.9627 38.3391 31.9313 38.0506C31.9627 37.2812 32.1515 36.5599 32.6234 35.9347C33.5986 34.6684 35.4233 34.6845 36.3828 35.9508C37.2794 37.169 37.2165 38.9482 36.2098 40.0543Z" fill="white"/>
<path d="M93.7969 35.6142C92.9318 34.9089 91.9093 34.7806 90.8554 35.0371C89.4397 35.3577 88.5746 36.5278 88.5589 38.0666C88.5431 39.4452 89.3768 40.4871 90.7453 40.8557C90.9184 40.9038 91.0756 40.9359 91.2487 40.9679C91.5161 40.9679 91.7992 40.9679 92.0666 40.9679C92.2711 40.9199 92.4756 40.8878 92.6801 40.8237C93.8127 40.471 94.5992 39.7337 94.8351 38.5315C95.0553 37.3614 94.7092 36.3675 93.7969 35.6142ZM93.4666 40.0543C92.8217 40.7596 92.0194 41.0321 91.1071 40.8077C90.1319 40.5672 89.5656 39.878 89.3139 38.9322C89.2353 38.6597 89.2195 38.3552 89.1881 38.0666C89.2195 37.2812 89.3926 36.5599 89.8802 35.9347C90.8554 34.6845 92.6644 34.7005 93.6239 35.9668C94.5205 37.153 94.4576 38.9322 93.4666 40.0543Z" fill="white"/>
<path d="M121.733 35.6142C120.868 34.9089 119.846 34.7806 118.792 35.0371C117.376 35.3577 116.511 36.5278 116.495 38.0666C116.479 39.4452 117.313 40.4871 118.682 40.8557C118.855 40.9038 119.012 40.9359 119.185 40.9679C119.452 40.9679 119.736 40.9679 120.003 40.9679C120.207 40.9199 120.412 40.8878 120.616 40.8237C121.749 40.471 122.535 39.7337 122.771 38.5315C122.992 37.3614 122.661 36.3675 121.733 35.6142ZM121.544 39.894C120.915 40.7115 120.082 41.0481 119.075 40.8237C118.084 40.5993 117.518 39.91 117.25 38.9483C117.172 38.6597 117.156 38.3552 117.124 38.0666C117.156 37.3293 117.329 36.6561 117.738 36.0469C118.697 34.7005 120.585 34.6684 121.576 35.9989C122.41 37.1049 122.394 38.788 121.544 39.894Z" fill="white"/>
<path d="M101.756 35.6142C101.741 37.185 101.756 38.7559 101.756 40.3268C101.756 40.4069 101.756 40.4871 101.741 40.6313C101.63 40.471 101.552 40.3588 101.473 40.2466C100.325 38.5475 99.1765 36.8324 98.0125 35.1333C97.9653 35.0531 97.8867 34.957 97.808 34.957C97.5092 34.9409 97.1946 34.9409 96.8328 34.9409C96.9744 35.005 97.0845 35.0371 97.1631 35.1012C97.226 35.1493 97.289 35.2455 97.289 35.3256C97.289 37.0408 97.289 38.7399 97.289 40.455C97.289 40.6954 97.1631 40.8397 96.9429 40.9199C96.88 40.9359 96.8328 40.9679 96.7699 40.984C97.1317 40.984 97.4934 40.984 97.8552 40.984C97.4462 40.8718 97.3519 40.5672 97.3676 40.1665C97.3833 38.6437 97.3676 37.1209 97.3676 35.5981C97.3676 35.518 97.3676 35.4378 97.3676 35.3577C97.4777 35.4218 97.5249 35.4859 97.5721 35.5661C98.7518 37.3133 99.9316 39.0444 101.096 40.7916C101.143 40.8557 101.159 40.9199 101.206 40.984C101.41 40.984 101.63 40.984 101.835 40.984C101.835 40.8878 101.819 40.8077 101.819 40.7115C101.819 39.0284 101.819 37.3453 101.819 35.6623C101.819 35.3256 101.882 35.0852 102.228 34.973C101.929 34.973 101.615 34.973 101.316 34.973C101.678 35.0531 101.756 35.2936 101.756 35.6142Z" fill="white"/>
<path d="M47.6926 38.7719C47.4409 38.5635 47.1578 38.3872 46.8589 38.2109C46.3556 37.9063 45.8208 37.6338 45.3331 37.3133C45.0657 37.1369 44.814 36.8805 44.6253 36.608C44.3421 36.2072 44.4523 35.6783 44.8298 35.3737C45.3331 34.957 45.9151 34.9249 46.4971 35.1333C47.0477 35.3256 47.378 35.7424 47.4724 36.3355C47.4881 36.3996 47.5039 36.4477 47.5353 36.5759C47.6926 36.4797 47.8971 36.4316 47.96 36.3194C48.0229 36.1912 47.9443 35.9989 47.9128 35.8546C47.8971 35.7744 47.8185 35.7103 47.7555 35.6302C47.0477 34.8768 45.4747 34.7005 44.6096 35.2775C43.9332 35.7424 43.7916 36.64 44.3422 37.2491C44.5624 37.4896 44.814 37.698 45.0972 37.8743C45.5219 38.1468 45.9938 38.3552 46.4342 38.6116C46.7331 38.788 47.032 38.9483 47.2994 39.1566C47.8027 39.5734 47.7555 40.1825 47.2207 40.5672C46.8432 40.8237 46.4028 40.9038 45.9623 40.8557C45.2859 40.7756 44.7354 40.471 44.468 39.7978C44.4208 39.6696 44.3893 39.5253 44.3579 39.381C44.1691 39.381 43.9489 39.3971 43.9174 39.5894C43.886 39.7337 43.9489 39.926 44.0276 40.0703C44.0747 40.1825 44.1691 40.2787 44.2792 40.3268C44.5309 40.4871 44.7983 40.6474 45.0657 40.7596C45.2859 40.8557 45.5376 40.8878 45.7578 40.9519C46.0095 40.9519 46.2769 40.9519 46.5286 40.9519C46.5915 40.9359 46.6544 40.9199 46.7174 40.9038C47.1263 40.8237 47.5039 40.6794 47.787 40.3588C48.2274 39.8619 48.2117 39.2207 47.6926 38.7719Z" fill="white"/>
<path d="M53.2295 40.8878C52.6003 40.8557 51.9711 40.8878 51.3419 40.8878C51.2633 40.8878 51.1847 40.8878 51.106 40.8718C51.106 39.894 51.106 38.9483 51.106 37.9865C51.8138 37.9865 52.5217 37.9865 53.2138 37.9865C53.5441 37.9865 53.8587 38.0025 54.016 38.4353C54.016 38.0987 54.016 37.8102 54.016 37.5377C53.8745 37.8583 53.6071 37.9224 53.3082 37.9224C52.6475 37.9224 51.9711 37.9224 51.3105 37.9224C51.2318 37.9224 51.1689 37.9063 51.0903 37.9063C51.0903 36.9446 51.0903 35.9989 51.0903 35.0371C51.1847 35.0371 51.2633 35.0371 51.3419 35.0371C52.0026 35.0371 52.6633 35.0531 53.3239 35.0371C53.8273 35.0211 54.1891 35.2455 54.4565 35.6302C54.598 35.8386 54.6924 36.095 54.8183 36.3515C54.7396 35.8706 54.6767 35.4218 54.598 34.973C53.088 34.973 51.5779 34.973 50.0836 34.973C50.351 35.0692 50.4925 35.2455 50.4925 35.55C50.4925 37.169 50.4925 38.804 50.4925 40.423C50.4925 40.7115 50.3824 40.8557 50.115 40.9519C50.0678 40.9679 50.0364 40.984 49.9892 41C51.5464 41 53.1037 41 54.661 41C54.7396 40.5031 54.8025 39.9902 54.8812 39.4612C54.7868 39.6856 54.7239 39.894 54.6138 40.0863C54.3149 40.5832 53.8902 40.9199 53.2295 40.8878Z" fill="white"/>
<path d="M66.6314 40.8878C66.0022 40.8557 65.373 40.8878 64.7438 40.8878C64.6652 40.8878 64.5865 40.8878 64.5079 40.8718C64.5079 39.894 64.5079 38.9483 64.5079 37.9865C65.2157 37.9865 65.9236 37.9865 66.6157 37.9865C66.946 37.9865 67.2606 38.0025 67.4179 38.4193C67.4179 38.0827 67.4179 37.7941 67.4179 37.5216C67.2763 37.8422 67.0089 37.9063 66.7101 37.9063C66.0494 37.9063 65.373 37.9063 64.7124 37.9063C64.6337 37.9063 64.5708 37.8903 64.4921 37.8903C64.4921 36.9286 64.4921 35.9828 64.4921 35.0211C64.5865 35.0211 64.6652 35.0211 64.7438 35.0211C65.4045 35.0211 66.0651 35.0371 66.7258 35.0211C67.2291 35.005 67.5909 35.2295 67.8583 35.6142C67.9999 35.8225 68.0943 36.079 68.2201 36.3355C68.1415 35.8546 68.0786 35.4058 67.9999 34.957C66.4898 34.957 64.9798 34.957 63.4854 34.957C63.7528 35.0531 63.8944 35.2295 63.8944 35.534C63.8944 37.153 63.8944 38.788 63.8944 40.4069C63.8944 40.6954 63.7843 40.8397 63.5169 40.9359C63.4697 40.9519 63.4382 40.9679 63.391 40.984C64.9483 40.984 66.5056 40.984 68.0628 40.984C68.1415 40.4871 68.2044 39.9741 68.283 39.4452C68.1887 39.6696 68.1257 39.878 68.0156 40.0703C67.7168 40.5832 67.2921 40.9199 66.6314 40.8878Z" fill="white"/>
<path d="M134.679 40.8878C134.05 40.8557 133.421 40.8878 132.791 40.8878C132.713 40.8878 132.634 40.8878 132.555 40.8718C132.555 39.894 132.555 38.9483 132.555 37.9865C133.263 37.9865 133.971 37.9865 134.663 37.9865C134.993 37.9865 135.308 38.0025 135.465 38.4353C135.465 38.0987 135.465 37.8102 135.465 37.5216C135.245 37.8583 135.151 37.9063 134.758 37.9063C134.097 37.9063 133.421 37.9063 132.76 37.9063C132.681 37.9063 132.618 37.8903 132.54 37.8903C132.54 36.9286 132.54 35.9828 132.54 35.0211C132.634 35.0211 132.713 35.0211 132.791 35.0211C133.452 35.0211 134.113 35.0371 134.773 35.0211C135.277 35.005 135.638 35.2295 135.906 35.6142C136.047 35.8225 136.142 36.079 136.268 36.3355C136.189 35.8546 136.126 35.4058 136.047 34.957C134.537 34.957 133.027 34.957 131.533 34.957C131.8 35.0531 131.942 35.2295 131.942 35.534C131.942 37.153 131.942 38.788 131.942 40.4069C131.942 40.6954 131.832 40.8397 131.564 40.9359C131.517 40.9519 131.486 40.9679 131.439 40.984C132.996 40.984 134.553 40.984 136.11 40.984C136.189 40.4871 136.252 39.9741 136.331 39.4452C136.236 39.6696 136.173 39.878 136.063 40.0703C135.78 40.5832 135.355 40.9199 134.679 40.8878Z" fill="white"/>
<path d="M20.8889 35.3577C20.244 34.957 19.5361 34.8768 18.7811 34.973C17.2867 35.1814 16.2958 36.2233 16.2014 37.7621C16.0913 39.2208 16.9721 40.423 18.4193 40.8237C18.6081 40.8718 18.7811 40.9038 18.9698 40.9519C19.2215 40.9519 19.4889 40.9519 19.7406 40.9519C19.7878 40.9359 19.835 40.9199 19.8822 40.9038C20.5271 40.7756 21.0619 40.471 21.4709 39.9581C21.5024 39.926 21.5181 39.8619 21.5495 39.8299C20.4642 41.1122 18.0418 41.0802 17.098 39.0765C16.7205 38.291 16.7677 37.4736 17.0351 36.6561C17.4126 35.534 18.2935 34.957 19.4575 35.0211C20.2597 35.0692 20.8889 35.534 21.0619 36.2393C21.0934 36.3515 21.1091 36.4637 21.1406 36.64C21.3136 36.5599 21.5024 36.5118 21.5653 36.3996C21.6282 36.2874 21.5967 36.063 21.5181 35.9668C21.3608 35.7424 21.1406 35.518 20.8889 35.3577Z" fill="white"/>
<path d="M74.9053 35.3577C74.2604 34.957 73.5526 34.8768 72.7975 34.973C71.3032 35.1814 70.3122 36.2233 70.2178 37.7621C70.1077 39.2208 70.9886 40.423 72.4357 40.8237C72.6245 40.8718 72.7975 40.9038 72.9863 40.9519C73.238 40.9519 73.5054 40.9519 73.757 40.9519C73.8042 40.9359 73.8514 40.9199 73.8986 40.9038C74.5435 40.7756 75.0784 40.471 75.4873 39.9581C75.5188 39.926 75.5345 39.8619 75.566 39.8299C74.4806 41.1122 72.0582 41.0802 71.1144 39.0765C70.7369 38.291 70.7841 37.4736 71.0515 36.6561C71.429 35.534 72.3099 34.957 73.4739 35.0211C74.2761 35.0692 74.9053 35.534 75.0784 36.2393C75.1098 36.3515 75.1255 36.4637 75.157 36.64C75.33 36.5599 75.5188 36.5118 75.5817 36.3996C75.6446 36.2874 75.6132 36.063 75.5345 35.9668C75.3772 35.7424 75.157 35.518 74.9053 35.3577Z" fill="white"/>
<path d="M13.7318 35.502C13.7318 36.5919 13.7318 37.6819 13.7161 38.7559C13.6846 39.9902 13.0711 40.6313 11.8757 40.7916C10.7903 40.9359 10.0825 40.439 9.87797 39.349C9.83078 39.0925 9.81505 38.82 9.81505 38.5475C9.81505 37.5858 9.83078 36.64 9.81505 35.6783C9.81505 35.3417 9.86224 35.0371 10.2398 34.9249C9.76786 34.9249 9.29596 34.9249 8.7926 34.9249C9.15439 35.0852 9.23304 35.1814 9.23304 35.55C9.23304 35.9989 9.21731 36.4477 9.23304 36.9125C9.23304 37.6499 9.21731 38.4033 9.28023 39.1406C9.34315 40.0703 9.8937 40.6474 10.7746 40.8557C10.8847 40.8878 11.0105 40.9038 11.1206 40.9359C11.388 40.9359 11.6712 40.9359 11.9386 40.9359C11.97 40.9199 12.0015 40.9038 12.0487 40.9038C13.1498 40.7115 13.7475 40.1024 13.8104 38.9803C13.8734 37.8422 13.8419 36.7202 13.8576 35.5821C13.8576 35.1814 13.9363 35.0692 14.2981 34.9249C13.9677 34.9249 13.6531 34.9249 13.2914 34.9249C13.6217 35.0852 13.7318 35.2134 13.7318 35.502Z" fill="white"/>
<path d="M78.0041 34.957C77.9727 35.1974 77.9255 35.4218 77.894 35.6462C77.8625 35.8706 77.8311 36.079 77.7996 36.3034C78.3344 34.8928 78.9007 34.973 80.0647 35.0531C80.0647 35.1333 80.0647 35.2295 80.0647 35.3256C80.0647 36.9286 80.049 38.5475 80.0647 40.1505C80.0647 40.5512 80.0018 40.8557 79.5771 40.9679C80.0962 40.9679 80.5995 40.9679 81.1186 40.9679C80.6939 40.8397 80.631 40.5512 80.631 40.1505C80.6467 38.5475 80.631 36.9286 80.631 35.3256C80.631 35.2295 80.631 35.1493 80.631 35.0371C80.9141 35.0371 81.1658 35.0531 81.4175 35.0371C81.8894 35.005 82.2355 35.2134 82.5029 35.5981C82.6602 35.8225 82.7545 36.079 82.8961 36.3355C82.8175 35.8706 82.7545 35.4218 82.6759 34.973C81.1186 34.957 79.5614 34.957 78.0041 34.957Z" fill="white"/>
<path d="M124.659 34.957C124.596 35.4218 124.517 35.8546 124.454 36.3034C124.989 34.8928 125.556 34.973 126.72 35.0531C126.72 35.1493 126.72 35.2295 126.72 35.3256C126.72 36.9286 126.704 38.5475 126.72 40.1505C126.72 40.5512 126.657 40.8557 126.232 40.9679C126.751 40.9679 127.254 40.9679 127.773 40.9679C127.349 40.8397 127.286 40.5512 127.286 40.1505C127.302 38.5475 127.286 36.9286 127.286 35.3256C127.286 35.2295 127.286 35.1493 127.286 35.0371C127.569 35.0371 127.821 35.0531 128.072 35.0371C128.544 35.005 128.89 35.2134 129.158 35.5981C129.315 35.8225 129.409 36.079 129.551 36.3355C129.472 35.8706 129.409 35.4218 129.331 34.973C127.773 34.957 126.216 34.957 124.659 34.957Z" fill="white"/>
<path d="M59.9305 40.8718C59.553 40.8557 59.1754 40.8718 58.7979 40.8718C58.5148 40.8718 58.2316 40.8718 57.917 40.8718C57.917 40.7596 57.917 40.6634 57.917 40.5832C57.917 38.9643 57.917 37.3293 57.917 35.7103C57.917 35.3577 57.9485 35.0692 58.4047 34.957C57.8699 34.957 57.398 34.957 56.8631 34.957C57.1777 35.0531 57.335 35.1974 57.335 35.4859C57.335 37.1369 57.335 38.7719 57.335 40.423C57.335 40.6794 57.2092 40.8397 56.9733 40.9199C56.9261 40.9359 56.8789 40.9519 56.8317 40.984C58.3103 40.984 59.8046 40.984 61.2832 40.984C61.3619 40.4871 61.4563 39.9902 61.5349 39.5253C61.3934 39.7978 61.2518 40.0863 61.0788 40.3428C60.7799 40.6954 60.4024 40.9038 59.9305 40.8718Z" fill="white"/>
<path d="M142.89 39.5894C142.78 39.8138 142.701 40.0382 142.56 40.2466C142.276 40.6634 141.883 40.9038 141.348 40.8718C140.971 40.8557 140.578 40.8718 140.184 40.8718C139.917 40.8718 139.65 40.8718 139.351 40.8718C139.351 40.7596 139.351 40.6634 139.351 40.5832C139.351 38.9483 139.351 37.3133 139.351 35.6943C139.351 35.3417 139.398 35.0692 139.854 34.957C139.303 34.957 138.832 34.957 138.375 34.957C138.643 35.0531 138.784 35.2295 138.784 35.534C138.784 37.153 138.784 38.788 138.784 40.4069C138.784 40.6954 138.674 40.8397 138.407 40.9359C138.36 40.9519 138.328 40.9679 138.281 40.984C139.76 40.984 141.254 40.984 142.733 40.984C142.827 40.984 142.921 40.984 143 40.984C143 40.4871 143 40.0062 143 39.5093C143 39.4772 143 39.4452 143 39.4131C142.953 39.4612 142.921 39.5253 142.89 39.5894Z" fill="white"/>
<path d="M85.9792 40.1344C85.9949 38.6597 85.9949 37.2011 85.9792 35.7264C85.9792 35.3737 85.9949 35.0531 86.4668 34.9409C85.932 34.9409 85.4601 34.9409 84.9567 34.9409C85.3342 35.0852 85.3972 35.1974 85.3972 35.5821C85.3972 37.1049 85.3814 38.6277 85.3972 40.1505C85.3972 40.5512 85.3185 40.8397 84.9253 40.9519C85.4444 40.9519 85.9477 40.9519 86.4668 40.9519C86.0578 40.8397 85.9792 40.5512 85.9792 40.1344Z" fill="white"/>
</svg>
